<svg width="33" height="33" viewBox="0 0 33 33" fill="none" xmlns="http://www.w3.org/2000/svg">
<path d="M28.7375 2.75H4.2625C3.86136 2.75 3.47665 2.90935 3.193 3.193C2.90935 3.47665 2.75 3.86136 2.75 4.2625V28.7375C2.75 28.9361 2.78912 29.1328 2.86513 29.3163C2.94114 29.4998 3.05255 29.6666 3.193 29.807C3.33345 29.9474 3.50019 30.0589 3.68369 30.1349C3.8672 30.2109 4.06388 30.25 4.2625 30.25H17.435V19.5938H13.86V15.4688H17.435V12.375C17.3609 11.6487 17.4467 10.9149 17.6862 10.2252C17.9258 9.53555 18.3133 8.90662 18.8216 8.38257C19.33 7.85851 19.9468 7.45201 20.6289 7.19158C21.311 6.93115 22.0417 6.8231 22.77 6.875C23.8402 6.86841 24.9099 6.92351 25.9737 7.04V10.7525H23.7875C22.055 10.7525 21.725 11.5775 21.725 12.7738V15.4275H25.85L25.3137 19.5525H21.725V30.25H28.7375C28.9361 30.25 29.1328 30.2109 29.3163 30.1349C29.4998 30.0589 29.6666 29.9474 29.807 29.807C29.9474 29.6666 30.0589 29.4998 30.1349 29.3163C30.2109 29.1328 30.25 28.9361 30.25 28.7375V4.2625C30.25 4.06388 30.2109 3.8672 30.1349 3.68369C30.0589 3.50019 29.9474 3.33345 29.807 3.193C29.6666 3.05255 29.4998 2.94114 29.3163 2.86513C29.1328 2.78912 28.9361 2.75 28.7375 2.75Z" fill="white"/>
</svg>
