<svg width="33" height="33" viewBox="0 0 33 33" fill="none" xmlns="http://www.w3.org/2000/svg">
<path d="M26.125 5.5H6.875C5.78098 5.5 4.73177 5.9346 3.95818 6.70818C3.1846 7.48177 2.75 8.53098 2.75 9.625V23.375C2.75 24.469 3.1846 25.5182 3.95818 26.2918C4.73177 27.0654 5.78098 27.5 6.875 27.5H26.125C27.219 27.5 28.2682 27.0654 29.0418 26.2918C29.8154 25.5182 30.25 24.469 30.25 23.375V9.625C30.25 8.53098 29.8154 7.48177 29.0418 6.70818C28.2682 5.9346 27.219 5.5 26.125 5.5ZM6.875 8.25H26.125C26.4897 8.25 26.8394 8.39487 27.0973 8.65273C27.3551 8.91059 27.5 9.26033 27.5 9.625L16.5 16.335L5.5 9.625C5.5 9.26033 5.64487 8.91059 5.90273 8.65273C6.16059 8.39487 6.51033 8.25 6.875 8.25ZM27.5 23.375C27.5 23.7397 27.3551 24.0894 27.0973 24.3473C26.8394 24.6051 26.4897 24.75 26.125 24.75H6.875C6.51033 24.75 6.16059 24.6051 5.90273 24.3473C5.64487 24.0894 5.5 23.7397 5.5 23.375V12.76L15.785 19.0438C15.994 19.1644 16.2311 19.228 16.4725 19.228C16.7139 19.228 16.951 19.1644 17.16 19.0438L27.5 12.76V23.375Z" fill="white"/>
</svg>
